<!-- Generated by IcoMoon.io -->
<svg version="1.1" xmlns="http://www.w3.org/2000/svg" width="512" height="448" viewBox="0 0 512 448">
<title></title>
<g id="icomoon-ignore">
</g>
<path fill="#000" d="M479.938 192.006c17.745 0 31.994 14.249 31.994 31.994s-14.249 31.994-31.994 31.994h-3.754l-28.742 165.456c-2.749 15.247-16 26.495-31.492 26.495h-319.916c-15.498 0-28.742-11.249-31.492-26.495l-28.742-165.456h-3.754c-17.745 0-31.994-14.249-31.994-31.994s14.249-31.994 31.994-31.994h447.88zM121.287 391.955c8.75-0.753 15.498-8.499 14.751-17.249l-8.003-103.973c-0.753-8.75-8.499-15.498-17.249-14.751s-15.498 8.499-14.751 17.249l8.003 103.973c0.753 8.248 7.752 14.751 16 14.751h1.255zM224.005 375.961v-103.973c0-8.75-7.25-16-16-16s-16 7.25-16 16v103.973c0 8.75 7.25 16 16 16s16-7.25 16-16zM319.987 375.961v-103.973c0-8.75-7.25-16-16-16s-16 7.25-16 16v103.973c0 8.75 7.25 16 16 16s16-7.25 16-16zM407.96 377.21l8.003-103.973c0.753-8.75-6.001-16.496-14.751-17.249s-16.496 6.001-17.249 14.751l-8.003 103.973c-0.753 8.75 6.001 16.496 14.751 17.249h1.255c8.248 0 15.247-6.503 16-14.751zM119.034 73.037l-23.244 102.975h-32.992l25.246-110.218c6.503-29.245 32.245-49.739 62.237-49.739h41.742c0-8.75 7.25-16 16-16h95.976c8.75 0 16 7.25 16 16h41.742c29.992 0 55.74 20.495 62.237 49.739l25.246 110.218h-32.992l-23.244-102.975c-3.503-14.751-16.251-24.995-31.247-24.995h-41.742c0 8.75-7.25 16-16 16h-95.976c-8.75 0-16-7.25-16-16h-41.742c-14.996 0-27.745 10.25-31.247 24.995z"></path>
</svg>
